<svg width="263.4425mm" height="276.9072mm" viewBox="0 0 263.4425 276.9072" xmlns="http://www.w3.org/2000/svg">
    <path d="m 1795.0106,2681.4335 c -7.7716,-0.043 -19.3209,1.9026 -21.1858,2.6324 -2.2956,0.8979 -36.5264,43.7394 -36.5264,43.7394 0,0 -2.5448,28.6506 -3.0438,34.803 -0.499,6.1524 2.395,20.208 4.5408,24.2048 2.1455,3.9968 22.9535,14.1905 31.6358,14.8642 21.9056,-1.482 15.7183,-16.1668 11.8763,-26.3607 -3.8423,-10.1938 0.3987,-19.8934 4.0912,-29.0545 3.6925,-9.161 20.1093,-20.2985 25.7478,-24.6993 5.6388,-4.4008 5.8879,-16.4808 4.9899,-20.6572 -0.8983,-4.1761 -10.9774,-17.6933 -17.5142,-19.0856 -1.2256,-0.261 -2.8181,-0.3767 -4.6116,-0.3865 z m 13.4608,8.7092 c 10.3962,7.059 8.8916,17.4678 8.8916,17.4678 0,0 -16.2504,11.9162 -21.2167,14.7147 -4.9659,2.7985 -8.6746,3.8068 -3.0588,-2.5421 5.6158,-6.3489 15.3839,-29.6404 15.3839,-29.6404 z" fill="#3c454f" paint-order="markers stroke fill" transform="translate(99.000895,85.5977) translate(-1779.3906,-2718.1894)"/>
    <path d="m 1858.9891,2646.7255 c -7.2103,-0.067 -13.7602,2.978 -17.9513,4.2437 -9.9128,2.9936 -13.5612,16.0675 -14.0214,25.0134 0.7985,15.6726 18.3127,24.5642 31.6358,25.1029 13.3228,0.539 23.6522,-8.353 26.6459,-13.7418 2.994,-5.389 -1.896,-21.7346 -1.896,-21.7346 l 7.335,-12.6638 -9.3809,5.703 c 0,0 1.6464,2.3801 -4.7904,-5.9278 -3.2185,-4.154 -10.3663,-5.9277 -17.5767,-5.995 z" fill="#c8d4c0" paint-order="markers stroke fill" transform="translate(99.000895,85.5977) translate(-1779.3906,-2718.1894)"/>
    <path d="m 1866.1427,2684.6601 c 0,0 -9.2809,0.6097 -10.9301,1.5989 -1.6491,0.9896 -6.6347,2.9802 -6.6347,2.9802 h -5e-4 c -0.6903,1.3346 -0.4094,3.8542 -0.038,5.2462 0.3707,1.3922 1.9431,3.0602 1.9431,3.0602 l 6.9422,-7.3974 2.5822,2.7497 z m -59.2217,3.6923 c -1.2238,11.1405 -15.0496,30.2979 -20.7808,36.461 -5.7722,6.2071 -1.81,6.1818 3.1559,3.3833 8.3836,-4.105 25.3416,-14.5363 28.3136,-19.6207 3.3956,-5.8093 -2.3914,-14.2514 -10.6887,-20.2236 z" fill="#fff" paint-order="markers stroke fill" transform="translate(99.000895,85.5977) translate(-1779.3906,-2718.1894)"/>
    <path d="m 1801.0412,2635.0699 c -8.025,1.6227 -2.5724,39.3878 -2.5724,39.3878 0,0 -8.0907,-1.1247 -20.823,0.6092 -12.7323,1.7338 -72.2719,72.6466 -85.2243,76.6341 -12.9524,3.9873 -10.7636,-0.6994 -3.962,11.9652 6.8014,12.6644 5.9446,35.4318 15.3913,51.0061 9.4469,15.5745 20.5692,19.9851 44.9874,14.6844 24.4184,-5.3007 26.2718,-29.4194 26.2718,-29.4194 -0.5532,2.8321 -38.7021,-1.6967 -38.1439,-18.2376 0.3038,-8.9993 -4.3106,-40.0131 0,-53.7905 4.3104,-13.7777 29.2297,-46.4622 52.1286,-45.868 16.8362,0.4368 28.1388,16.0755 28.1388,16.0755 l 17.6475,-5.7392 c -8.9998,-15.131 -8.8625,-34.8943 10.0692,-44.141 0,0 -6.0177,-6.2776 -16.4698,-9.478 -10.4507,-3.2002 -27.4345,-3.6885 -27.4392,-3.6886 z m 8.7158,59.5731 c -1.6982,9e-4 -3.7841,2.3676 -4.7987,4.2039 -0.8924,1.6152 1.9114,3.6151 6.672,3.8504 -0.7959,2.9239 -2.3331,4.5016 -0.099,6.6605 2.7008,2.1437 4.3231,-0.7003 5.5108,-1.4014 1.1874,-0.7015 -0.06,-3.02 -1.186,-3.4541 -0.084,-4.0413 -1.7007,-5.7 -4.4777,-8.7948 -0.4437,-0.7557 -1.0069,-1.0649 -1.6211,-1.0645 z" fill="#d35f5f" paint-order="markers stroke fill" transform="translate(99.000895,85.5977) translate(-1779.3906,-2718.1894)"/>
    <path d="m 1801.7426,2632.5917 c -3.0671,0.01 -3.768,0.3842 -5.1692,1.4968 -2.3905,1.8984 -2.3426,0.063 -0.4559,17.5043 0.4448,4.1069 0.5909,10.5976 0.3247,14.4253 -0.4218,6.0743 -0.64,6.8938 -1.7166,6.4474 -28.247,-5.8605 -59.4694,30.5321 -66.6885,44.5053 -9.7325,13.0776 -28.7195,32.3231 -46.381,34.031 -2.0764,0 -1.5949,5.3509 1.4111,8.6783 3.9349,4.3556 5.2594,7.9957 7.4305,20.4166 4.6339,26.512 8.3651,36.7871 15.8875,43.7512 2.5754,2.3842 10.4087,6.0309 12.7807,6.9646 5.5959,1.3865 14.8605,0.2816 3.0477,-4.3571 -15.7443,-6.2487 -20.5587,-12.8786 -25.8202,-41.7748 -2.7757,-15.249 -4.8368,-21.1844 -8.8511,-25.3577 -2.9075,-3.0226 -0.3116,-2.7583 1.2507,-3.2324 16.3248,-3.728 28.3464,-10.3973 44.8157,-21.0121 -1.4169,11.9104 -3.5997,26.983 -1.7931,38.8556 2.304,13.231 11.6427,24.207 24.2358,28.4877 l 4.022,1.3674 4.179,9.0551 c 5.0586,10.959 7.2438,19.5855 7.3451,28.9951 0.1008,9.3377 -1.996,13.0583 -9.4665,16.7974 -7.1128,3.5599 -24.9007,7.7483 -38.7128,9.1138 -7.8369,0.775 -11.7842,2.8683 -13.1368,6.967 -0.7429,2.2503 -0.5297,3.4139 1.814,9.929 1.4594,4.059 3.3417,10.0685 4.1825,13.3543 1.8222,7.1176 2.9914,9.1104 6.1487,10.4836 v 0 c 3.0768,1.3393 6.6434,1.3528 9.7896,0.039 4.4339,-1.8529 4.1727,-6.4146 -0.3681,-6.4146 -3.6602,0 -5.9309,-1.2647 -5.9309,-3.3036 0,-2.7069 -3.5679,-13.5673 -6.124,-18.6407 -2.6585,-5.2766 -2.3527,-5.652 4.631,-5.6798 12.0396,-0.048 34.4945,-5.0631 42.8207,-9.5639 4.9122,-2.6559 9.7277,-8.1682 11.0191,-12.614 2.5744,-8.867 -0.3979,-28.0286 -6.346,-40.9019 -1.4878,-3.2205 -2.6186,-5.9275 -2.5131,-6.0153 0.1064,-0.088 2.2426,-0.5123 4.7472,-0.9441 4.3267,-0.7461 7.3131,-1.8441 11.5001,-4.2291 1.7116,-0.9752 7.8116,-2.4704 39.9479,-9.7901 13.2818,-4.8805 30.571,-2.1587 23.6183,14.2399 -0.7496,1.6425 -4.9523,7.6904 -9.3396,13.44 -16.5031,21.6295 -27.1314,35.9376 -28.8406,38.8276 -0.971,1.6426 -2.6826,4.0569 -3.8034,5.3645 -3.0334,3.5411 -3.1787,4.8077 -1.5518,13.53 0.8197,4.3923 1.8465,10.1703 2.2821,12.8394 0.5916,3.624 1.2636,5.2644 2.6524,6.4741 3.4994,3.0488 12.6569,4.0235 16.1023,1.7137 0.9519,-0.6387 2.346,-2.3432 0.01,-3.4504 -1.2057,-0.571 -4.2058,-1.224 -6.1603,-2.2143 -3.1379,-1.591 -3.5504,-2.0834 -3.5504,-4.2154 0,-1.3277 -0.8716,-6.7 -1.941,-11.9388 l -1.9442,-9.5255 3.387,-5.4083 c 1.8629,-2.9753 9.648,-13.8094 17.3005,-24.0763 21.4075,-28.7219 23.3498,-32.1448 22.6087,-39.8579 -1.0957,-11.4038 -8.5633,-15.816 -22.9873,-13.5822 -6.0491,0.9372 -25.9532,5.2097 -35.2187,7.5608 -8.101,2.0547 -7.8023,2.169 -8.3566,-3.2147 -0.2899,-2.8183 -1.2604,-6.146 -2.4503,-8.4 -2.6802,-5.0779 -3.3827,-17.3672 -1.3983,-24.462 2.6707,-9.5497 7.7293,-16.5368 16.0872,-22.2195 l 4.1317,-2.8085 2.589,4.5553 c 3.7174,6.5418 12.1833,14.9587 17.4887,17.3873 5.5938,2.5612 12.1949,3.1192 17.758,1.5018 2.2969,-0.6678 7.6504,-2.9951 11.8965,-5.1723 9.7835,-5.0163 19.1688,-8.9355 20.33,-8.49 0.4929,0.1892 1.27,1.473 1.7262,2.8522 0.4558,1.3793 2.0309,5.1959 3.5004,8.481 1.6587,3.7079 2.6768,7.1461 2.6821,9.0646 0.016,5.9153 4.6445,8.2894 6.6611,3.4174 0.8157,-1.9691 0.3424,-6.5379 -1.0609,-10.2418 l -0.5655,-1.4933 1.197,1.4933 c 0.6583,0.8213 1.2094,1.8024 1.22,2.1807 0.048,1.3989 2.5493,3.4195 4.2323,3.4195 1.1935,0 1.8727,-0.5411 2.1709,-1.7301 0.349,-1.3912 0.8371,-1.6719 2.4836,-1.4304 4.7819,0.7017 4.8207,-3.8568 0.087,-10.1121 -1.6243,-2.1455 -2.7337,-3.901 -2.4648,-3.901 0.2685,0 2.2735,1.0083 4.4569,2.2402 2.1828,1.2319 4.9509,2.2403 6.1505,2.2403 1.8846,0 2.1262,-0.2297 1.7767,-1.6807 -0.5792,-2.4037 -3.7439,-5.6112 -7.8936,-8.0004 l -3.5854,-2.0646 2.2961,-0.4588 c 1.2631,-0.2526 2.4942,-0.9744 2.7357,-1.6036 1.614,-4.2066 -7.517,-4.6395 -17.8681,-0.848 -3.7806,1.3848 -8.5539,2.9514 -10.6071,3.4825 -3.6073,0.9318 -14.9196,5.4041 -26.5081,10.4785 -7.1104,3.1142 -13.5271,3.3436 -19.1402,0.6832 -4.1092,-1.9468 -14.7524,-12.3159 -17.0363,-16.5976 l -1.4568,-2.7295 1.8299,-1.724 c 1.0065,-0.9475 2.8654,-3.0321 4.132,-4.6318 l 2.3024,-2.9077 10.2751,4.9879 c 5.6515,2.7432 12.2568,5.8213 14.6778,6.8408 10.6804,4.4953 27.3489,4.3447 46.0023,-0.4144 7.517,-1.9179 13.3228,-2.9731 16.3552,-2.9731 h 4.7014 l 1.96,3.9204 c 2.6424,5.2858 5.3576,8.0269 7.9515,8.0269 1.6132,0 2.1942,-0.4313 2.5644,-1.9048 0.3815,-1.5208 -0.2069,-2.7852 -2.9184,-6.2767 -1.8671,-2.4053 -3.1959,-4.572 -2.9527,-4.8156 0.8797,-0.8798 6.95,-0.417 9.8724,0.7519 1.824,0.73 3.598,2.1844 4.5561,3.7346 1.7362,2.8088 4.5929,3.9539 6.3092,2.5289 1.2587,-1.0443 1.492,-4.1484 0.3644,-4.8451 -1.1965,-0.7392 -0.8671,-1.6613 0.7461,-2.083 1.5653,-0.4096 2.0267,-2.353 0.7469,-3.1441 -1.298,-0.8025 -0.8101,-1.6142 0.9332,-1.5523 1.3597,0.048 1.7243,-0.3966 1.9111,-2.3302 0.358,-3.6967 -3.6624,-7.7142 -8.2368,-8.2298 -6.0772,-0.685 -18.0988,2.8913 -22.6819,6.7479 -1.5724,1.3232 -3.8206,2.1825 -7.0884,2.7088 -2.6319,0.4241 -9.321,1.7986 -14.8651,3.0551 -12.1732,2.7586 -24.3343,4.0244 -32.7139,3.4044 -6.2267,-0.4606 -11.9862,-2.1214 -29.21,-8.4216 l -7.7899,-2.8496 -0.2164,-5.8687 c -0.2905,-7.8624 -3.2089,-14.318 -9.1157,-20.1637 -5.9915,-5.9285 -10.5145,-7.5006 -21.3833,-7.4332 -6.3564,0.1305 -10.5826,0.9049 -14.6558,2.5517 0.1566,-0.3445 0.328,-0.6898 0.5199,-1.0351 4.4518,-10.3931 19.6572,-1.2157 23.6831,-5.5443 0.9207,-1.0705 1.3292,-7.1485 1.7565,-8.6881 0.1988,-11.3459 0.9118,-19.7761 -0.7702,-29.6725 10.5371,-1.5304 20.6502,1.5065 29.4109,4.1013 3.6935,1.0895 6.6201,1.5936 7.0059,1.2075 3.4702,-3.47 -14.219,-9.5535 -29.7765,-10.2412 -1.9889,-0.061 -4.0524,-0.1868 -5.9367,-0.1916 z m 50.6402,10.8707 c -4.1532,0.4519 -11.6158,3.9891 -13.9444,6.0963 -0.813,0.7358 -3.0593,2.3762 -4.6976,1.3769 -6.5011,-3.9656 -9.8793,-4.8721 -6.2371,7.5419 0.5157,1.7579 0.1273,3.5542 -0.9956,6.3802 -2.3775,5.9819 -2.2381,15.2953 0.3098,20.7092 4.903,10.4177 16.2097,18.1615 28.2761,19.3667 5.9332,0.5919 9.6755,0.2738 14.5602,-1.2401 11.0017,-3.4097 16.8058,-8.7286 18.6018,-17.0466 0.3757,-1.7364 1.0639,-2.4482 2.8909,-2.9869 3.2327,-0.9525 3.493,-2.9797 0.5948,-4.6291 -1.7505,-0.9964 -2.2937,-1.8323 -2.3043,-3.5438 -0.01,-1.2325 -0.4995,-4.0662 -1.0938,-6.2985 -1.0345,-3.8862 -1.0141,-4.1044 0.4599,-5.1371 1.806,-1.2647 5.8642,-9.479 5.8642,-11.8721 0,-0.9097 -0.6718,-2.0135 -1.4931,-2.4532 -1.8206,-0.9742 -3.3853,-0.2387 -7.6128,3.5806 -2.9102,2.6291 -3.0329,2.667 -4.055,1.2454 -4.1029,-5.7079 -7.0438,-6.7467 -13.4763,-9.3422 -5.2057,-2.1013 -8.5146,-2.2998 -15.6477,-1.7476 z m -2.6758,6.4566 c 1.1862,-0.062 2.1445,0.7308 5.1176,3.2314 2.3993,2.0182 4.9781,4.4252 5.7304,5.3488 1.7372,2.1344 5.3729,2.2672 6.4595,0.2363 0.4252,-0.7946 0.7726,-2.6421 0.7726,-4.1066 0,-1.4645 0.2601,-2.6625 0.5773,-2.6625 1.3375,0 6.2905,4.8384 8.0822,7.8946 1.065,1.818 2.2313,3.3052 2.5911,3.3052 0.975,0 3.8312,10.0118 3.552,12.4494 -0.2183,1.9048 -0.5527,2.1339 -3.4152,2.3411 -4.1476,0.2997 -4.2384,2.0859 -0.1866,3.6772 1.8781,0.7379 2.9864,1.6512 2.9864,2.4619 0,1.9145 -1.9804,6.2997 -3.3636,7.4475 -1.0706,0.8887 -1.1602,0.7959 -0.7734,-0.8057 0.2728,-1.1305 -0.097,-2.6746 -0.9851,-4.1103 -3.6512,-5.9073 -12.7505,-6.3402 -23.1677,-1.1028 -3.9761,1.9992 -6.0753,3.4923 -6.1142,4.344 -0.032,0.7146 -0.1665,1.8584 -0.2987,2.5434 -0.1326,0.6845 0.2092,2.1125 0.7596,3.1729 v 0 c 1.2813,2.4717 0.3942,2.4712 -4.3537,0 -4.4585,-2.3207 -8.9255,-6.7284 -11.0649,-10.9188 -1.804,-3.5327 -2.8017,-12.2695 -1.6389,-14.3476 0.5938,-1.0607 0.9271,-0.7757 2.0733,1.7664 0.7517,1.6666 1.8193,3.0297 2.3731,3.0297 1.2374,0 1.2358,-0.074 -0.099,-5.6002 -1.7061,-7.0649 -4.7596,-16.3208 2.7265,-7.1183 2.1535,2.6472 2.6749,4.069 4.6649,3.3057 1.7364,-0.6665 1.4539,-2.2418 -1.0589,-5.8936 -1.2319,-1.791 -2.2349,-3.5319 -2.2243,-3.8685 0.024,-0.9408 5.2596,-4.3968 8.3087,-5.485 0.8437,-0.3011 1.4298,-0.5062 1.9687,-0.5342 z m 36.1556,7.4854 c 0.1691,-0.021 0.3262,0.021 0.4522,0.1465 0.1519,0.1524 -0.043,0.8491 -0.4347,1.5484 -0.5326,0.952 -0.8562,1.0393 -1.2846,0.3463 -0.422,-0.6826 0.5337,-1.9502 1.2671,-2.0412 z m -20.3621,8.0015 c -0.7249,0.016 -1.4261,0.5649 -1.725,1.6812 -0.6099,2.2844 -0.5824,5.4231 0.056,6.0616 v 0 c 1.9307,1.9306 4.5699,-2.2112 3.677,-5.7703 -0.331,-1.3171 -1.183,-1.9889 -2.0045,-1.9725 z m 7.833,0.3741 c -1.0866,0 -1.4978,0.6112 -1.6785,2.4977 -0.132,1.3734 -0.058,2.9699 0.163,3.547 0.5715,1.4888 2.5032,1.2991 3.3758,-0.3318 1.0933,-2.0431 -0.1013,-5.7129 -1.8603,-5.7129 z m -85.835,17.8655 c 10.1669,0.449 14.1184,1.9246 19.1333,7.1443 5.8576,6.0965 7.7475,10.2198 7.7581,16.9219 0.01,4.8541 -0.2005,5.6028 -2.2754,8.1661 -1.2557,1.5521 -2.6281,2.9366 -3.0498,3.0769 -0.4218,0.1407 -1.3722,-1.0872 -2.1122,-2.7282 -2.4506,-5.4345 -9.8441,-16.846 -10.9149,-16.846 -1.7547,0 -0.8154,3.7439 3.0742,12.2521 5.3237,11.6424 5.3234,11.1143 0.011,14.5174 -5.0903,3.2605 -11.5247,9.8819 -14.4425,14.8601 -7.0253,11.988 -8.3675,30.0878 -3.0644,41.3247 0.9882,2.0934 1.7962,4.5511 1.7962,5.4626 0,3.6322 -3.0721,7.0707 -7.3882,8.2698 -3.6793,0.7646 -6.7072,0.7522 -10.4169,0.7572 l -3.3539,-5.0408 c -1.8439,-2.772 -4.2045,-5.8383 -5.2456,-6.8141 -3.6489,-3.421 -5.4716,-0.08 -3.0795,5.646 0.6215,1.4872 0.9443,2.8905 0.7173,3.1168 -0.6411,0.641 -5.3927,-2.1551 -8.8815,-5.2261 -1.7349,-1.5272 -4.3061,-4.9001 -5.7135,-7.4962 -4.3844,-6.5743 -2.5561,-14.0814 -2.5537,-21.8937 0.01,-17.0934 0.016,-17.2149 2.4453,-25.98 0.073,-0.264 0.1426,-0.5014 0.2148,-0.7607 26.3792,-21.9863 27.4291,-25.719 34.5811,-46.1139 4.0745,-2.3601 9.2101,-2.7692 12.7611,-2.6162 z m 73.5965,3.415 c 1.2581,0 1.3295,0.2283 0.5828,1.8663 -0.9797,2.1516 -1.751,2.3702 -2.3997,0.6797 -0.6099,-1.5896 0.072,-2.546 1.8169,-2.546 z m -7.719,2.3177 c 1.0412,0.063 0.885,0.9985 -0.1698,3.2218 -1.2621,2.6586 -3.1002,3.5232 -3.7005,1.7405 -1.0181,-3.0224 -0.7144,-3.8434 1.6809,-4.5469 0.9959,-0.2926 1.7163,-0.4442 2.1894,-0.4154 z m 15.1972,1.7537 c 0.4796,0.01 0.9128,0.07 1.2681,0.1973 0.513,0.1847 0.9327,1.4523 0.9327,2.8165 0,2.2874 -0.2734,2.5742 -3.4933,3.6717 -2.0381,0.6942 -5.9529,1.1901 -9.3999,1.1901 h -5.906 l 1.8613,-2.2128 c 1.0242,-1.2168 2.0045,-2.6416 2.1797,-3.1662 0.236,-0.7083 0.653,-0.6194 1.6179,0.3453 1.7132,1.7131 2.4125,1.6428 4.5119,-0.4565 1.3851,-1.3853 4.3485,-2.414 6.4276,-2.3854 z" fill="#030303" transform="translate(99.000895,85.5977) translate(-1779.3906,-2718.1894)"/>
</svg>
