<?xml version="1.0" standalone="no"?>
<!DOCTYPE svg PUBLIC "-//W3C//DTD SVG 20010904//EN"
 "http://www.w3.org/TR/2001/REC-SVG-20010904/DTD/svg10.dtd">
<svg version="1.0" xmlns="http://www.w3.org/2000/svg"
 width="241.000000pt" height="241.000000pt" viewBox="0 0 241.000000 241.000000"
 preserveAspectRatio="xMidYMid meet">

<g transform="translate(0.000000,241.000000) scale(0.100000,-0.100000)"
fill="#000000" stroke="none">
<path d="M1025 2394 c-524 -80 -931 -491 -1009 -1016 -20 -133 -20 -213 0
-346 78 -529 487 -938 1016 -1016 133 -20 213 -20 346 0 529 78 938 487 1016
1016 20 133 20 213 0 346 -98 661 -713 1117 -1369 1016z m-385 -459 c23 -13
24 -14 4 -15 -123 -2 -78 -460 59 -600 16 -16 38 -30 49 -30 16 0 18 -3 9 -14
-17 -21 -44 -25 -77 -11 -24 10 -33 9 -52 -3 -21 -14 -26 -13 -55 9 -18 13
-46 23 -65 24 -28 0 -39 7 -63 40 -48 67 -81 176 -86 292 -7 136 0 171 38 187
17 7 39 27 49 44 12 20 28 32 41 32 11 0 34 14 49 30 31 33 61 37 100 15z
m1183 -15 c17 -19 35 -30 52 -30 19 0 29 -8 41 -33 9 -19 28 -38 44 -44 33
-12 50 -59 50 -139 0 -117 -48 -283 -102 -348 -26 -32 -35 -37 -59 -32 -16 3
-31 1 -34 -4 -4 -6 -20 -17 -36 -26 -27 -13 -33 -14 -53 -1 -15 10 -27 12 -39
5 -21 -11 -79 -7 -84 7 -2 6 10 16 26 22 35 13 81 80 112 162 71 191 67 439
-9 458 -24 6 -24 7 -7 19 32 23 71 17 98 -16z m-539 -23 c15 -11 16 -19 6 -62
-6 -28 -12 -92 -12 -143 -1 -98 -11 -122 -47 -122 -15 0 -18 8 -17 46 1 42 3
45 24 41 13 -3 20 -1 15 3 -4 5 -17 10 -28 12 -18 3 -20 12 -22 106 0 57 -4
106 -7 109 -24 24 56 33 88 10z m-606 -22 c41 -35 111 -195 84 -195 -6 0 -14
15 -17 33 -9 37 -50 124 -73 150 -26 29 -49 21 -66 -25 -15 -41 -15 -41 -10
-8 6 34 29 70 45 70 4 0 21 -11 37 -25z m477 1 c3 -6 9 -69 14 -140 11 -139 7
-156 -34 -156 -20 0 -22 5 -20 44 0 25 -2 43 -6 40 -4 -2 -8 4 -8 13 0 10 -5
43 -11 73 -20 110 -20 131 3 139 25 9 57 3 62 -13z m251 -10 c24 -23 41 -66
26 -66 -5 0 -14 10 -20 23 -6 12 -11 16 -11 8 -1 -11 -6 -10 -23 5 l-23 19 23
-26 c24 -28 29 -59 9 -59 -20 0 -45 22 -50 45 -3 12 -5 8 -4 -10 2 -23 9 -32
30 -40 24 -8 31 -6 42 8 16 22 24 21 60 -8 29 -24 30 -27 29 -107 0 -97 -14
-129 -75 -182 -72 -61 -196 -94 -249 -66 -15 8 -18 7 -14 -3 4 -11 -6 -12 -46
-7 -75 10 -138 65 -143 125 -2 26 3 31 48 48 46 17 52 17 76 3 15 -9 36 -16
48 -16 15 0 19 -4 14 -17 -6 -16 -5 -17 11 -3 10 8 32 13 50 12 23 -2 38 4 55
22 15 16 35 26 52 26 15 0 31 5 34 10 4 6 14 1 25 -12 l19 -23 -6 22 c-9 37 4
68 34 80 l28 11 -32 1 c-59 2 -128 91 -107 138 4 10 6 22 5 26 0 4 4 17 9 28
13 24 44 18 76 -15z m330 26 c19 -12 34 -49 33 -79 -1 -20 -3 -22 -6 -8 -23
107 -66 98 -120 -25 -11 -25 -23 -57 -26 -72 -4 -16 -12 -28 -18 -28 -23 0 45
152 86 193 30 29 34 31 51 19z m-695 -69 c6 -19 11 -51 12 -71 0 -20 5 -40 11
-45 7 -5 5 -12 -8 -22 -22 -17 -50 -6 -67 28 l-11 22 21 -22 c28 -29 44 -30
36 -2 -5 13 -2 25 6 31 10 7 8 8 -8 5 -12 -3 -22 -2 -21 2 1 3 -3 17 -9 31 -6
14 -14 33 -17 43 -3 10 -10 15 -16 12 -5 -3 -10 -1 -10 5 0 13 40 29 57 23 7
-3 17 -20 24 -40z m275 -98 c-2 -7 6 -17 20 -24 13 -6 24 -15 24 -21 0 -22
-21 -50 -38 -50 -14 0 -17 10 -18 60 0 33 3 57 8 54 5 -3 7 -12 4 -19z m-613
-22 c-28 -11 6 -181 35 -175 14 2 16 -14 3 -23 -25 -15 -71 71 -71 134 0 51 8
71 29 70 10 0 11 -2 4 -6z m982 -68 c0 -57 -4 -76 -24 -103 -23 -32 -41 -37
-49 -14 -2 7 2 10 11 6 31 -12 66 166 35 180 -7 3 -4 5 7 3 18 -2 20 -10 20
-72z m-695 47 c21 -17 18 -18 -119 -41 -100 -17 -141 -28 -141 -37 0 -18 18
-17 105 1 39 9 104 18 145 20 60 4 44 0 -85 -24 -144 -25 -161 -27 -172 -13
-15 19 -17 58 -3 67 11 7 194 43 226 44 12 1 32 -7 44 -17z m603 -13 c55 -11
57 -13 57 -43 0 -47 -12 -54 -75 -43 -30 6 -55 14 -55 17 0 4 20 3 45 -2 25
-5 52 -7 60 -4 30 11 14 23 -42 32 -49 8 -58 12 -61 32 -4 26 -3 26 71 11z
m-1244 -135 c-5 -6 -1 -21 8 -34 12 -18 13 -22 2 -18 -18 6 -34 70 -24 94 7
17 8 16 15 -6 4 -14 3 -30 -1 -36z m1681 18 c0 -21 -7 -47 -16 -58 -15 -18
-15 -18 -4 3 6 13 8 34 4 47 -5 23 0 46 12 46 2 0 4 -17 4 -38z m-1225 -42
c12 -105 -15 -199 -58 -200 -12 0 -67 59 -67 72 0 5 12 -4 26 -21 14 -17 34
-31 45 -31 27 0 43 68 35 163 -6 90 9 105 19 17z m774 -12 c-4 -109 -1 -134
19 -158 19 -23 19 -23 38 -4 10 11 30 33 43 49 l23 30 -17 -30 c-24 -40 -56
-75 -70 -75 -7 0 -20 9 -30 20 -28 31 -35 240 -9 240 4 0 5 -33 3 -72z m-251
-254 l-3 -109 -132 -3 -133 -3 0 111 c0 109 0 110 24 110 23 0 25 -5 34 -82
l9 -83 2 81 1 80 63 2 c34 1 76 6 92 11 17 4 34 5 38 1 4 -4 6 -56 5 -116z
m671 -165 c105 -22 180 -106 188 -211 7 -81 -8 -134 -52 -185 -61 -71 -107
-86 -277 -91 l-148 -4 0 31 0 31 -524 0 -525 0 -3 -27 -3 -28 -140 0 c-160 1
-198 10 -258 64 -54 48 -77 101 -77 179 0 123 69 213 187 241 56 13 1570 14
1632 0z m-1134 -504 c0 -16 4 -36 9 -43 5 -8 4 -18 -3 -25 -9 -9 -17 -6 -31
13 -16 22 -18 22 -17 5 2 -15 -4 -20 -22 -20 -23 0 -25 4 -25 53 l-1 53 45 -3
c43 -3 45 -5 45 -33z m72 3 c-1 -18 3 -33 8 -33 6 0 9 15 8 33 -2 28 1 32 21
32 22 0 24 -3 19 -42 -7 -52 -18 -68 -48 -68 -30 0 -41 16 -48 68 -5 39 -3 42
19 42 20 0 23 -4 21 -32z m180 16 c9 -23 -9 -48 -37 -52 -16 -3 -19 -6 -10
-12 18 -11 3 -30 -24 -30 -20 0 -22 5 -22 55 l1 55 43 0 c30 0 44 -5 49 -16z
m123 -5 c0 -15 -4 -19 -16 -15 -13 5 -15 -1 -12 -32 3 -34 1 -37 -24 -40 -27
-3 -28 -3 -23 45 3 26 3 42 -1 36 -9 -20 -34 -15 -34 7 0 18 7 20 55 20 49 0
55 -2 55 -21z m63 -19 c-4 -26 -2 -40 6 -40 6 0 11 17 11 40 0 36 2 40 25 40
22 0 25 -4 20 -25 -3 -14 -7 -36 -10 -50 -11 -51 -85 -41 -85 12 0 13 -5 33
-10 44 -9 17 -7 19 19 19 28 0 29 -1 24 -40z m176 26 c9 -11 9 -20 2 -35 -7
-13 -8 -22 -1 -26 15 -9 12 -35 -4 -35 -7 0 -20 10 -29 23 -14 21 -15 21 -14
2 2 -15 -4 -20 -22 -20 -23 0 -25 4 -25 53 l-1 52 41 0 c24 0 47 -6 53 -14z
m121 -6 c0 -22 -10 -26 -27 -9 -8 8 -13 8 -17 0 -4 -6 0 -11 8 -11 9 0 16 -4
16 -10 0 -5 -7 -10 -15 -10 -8 0 -15 -5 -15 -10 0 -6 11 -8 25 -4 21 5 25 3
25 -15 0 -18 -6 -21 -44 -21 -42 0 -74 19 -48 28 15 5 16 48 2 57 -23 14 -7
25 40 25 43 0 50 -3 50 -20z m35 -165 l-40 -35 -408 0 -409 0 -39 28 c-21 15
-39 30 -39 35 0 4 219 7 488 7 l487 -1 -40 -34z"/>
<path d="M551 1914 c-11 -14 -23 -42 -26 -63 -4 -20 -8 -46 -11 -58 -4 -20 -1
-21 18 -14 14 5 24 18 26 32 6 50 13 68 38 98 l26 31 -25 0 c-16 0 -34 -10
-46 -26z"/>
<path d="M484 1872 c-15 -10 -30 -41 -37 -78 -5 -26 -3 -31 11 -30 14 1 18
-13 25 -84 4 -47 19 -127 32 -178 14 -52 25 -96 25 -98 0 -2 -9 -4 -20 -4 -25
0 -25 -2 4 -49 27 -42 71 -81 92 -81 27 0 23 21 -15 71 -67 88 -106 250 -99
406 3 54 7 104 9 112 5 16 -11 24 -27 13z"/>
<path d="M382 1775 c-16 -34 -15 -34 8 -28 19 5 20 0 21 -73 0 -70 28 -210 53
-266 6 -12 2 -17 -14 -20 -21 -3 -21 -4 9 -45 29 -40 53 -53 65 -35 2 4 -13
42 -34 85 -48 100 -65 177 -64 305 1 89 -1 102 -16 102 -9 0 -22 -11 -28 -25z"/>
<path d="M605 1420 c-4 -6 -13 -9 -21 -6 -24 9 11 -48 60 -99 31 -33 50 -45
72 -45 l28 0 -24 17 c-29 19 -44 39 -81 101 -17 28 -29 40 -34 32z"/>
<path d="M1753 1929 c23 -13 43 -55 52 -106 4 -29 12 -43 26 -46 22 -6 23 2 8
71 -12 59 -40 92 -77 92 -23 -1 -25 -2 -9 -11z"/>
<path d="M1855 1870 c-3 -5 -1 -27 4 -47 17 -59 13 -149 -10 -258 -24 -116
-53 -186 -98 -238 -18 -20 -30 -41 -26 -47 19 -31 80 11 123 84 21 35 21 36 2
36 -25 0 -25 16 1 110 11 41 24 116 27 165 6 77 9 90 25 89 20 -2 21 7 7 58
-11 39 -43 67 -55 48z"/>
<path d="M1938 1717 c5 -116 -19 -233 -66 -328 -33 -67 -37 -79 -23 -84 10 -4
27 6 48 29 31 33 45 65 24 51 -21 -13 -20 19 4 102 15 55 26 120 28 173 2 73
5 85 20 84 10 -1 17 5 17 15 0 21 -19 41 -39 41 -14 0 -15 -13 -13 -83z"/>
<path d="M1726 1388 c-10 -22 -37 -58 -58 -79 -35 -33 -37 -39 -20 -39 27 0
87 52 118 102 26 41 30 53 14 43 -6 -4 -17 -2 -24 4 -9 8 -17 1 -30 -31z"/>
<path d="M610 970 c0 -16 5 -30 10 -30 26 0 -13 -146 -41 -155 -13 -4 -19 -16
-19 -36 0 -29 0 -29 60 -29 60 0 60 0 60 29 0 17 -5 33 -10 36 -19 12 1 25 36
25 33 0 45 -12 24 -25 -5 -3 -10 -19 -10 -36 l0 -29 70 0 70 0 0 29 c0 20 -6
32 -18 36 -17 5 -38 65 -66 188 -6 27 -7 27 -86 27 l-80 0 0 -30z m102 -85 c4
-20 1 -25 -14 -25 -14 0 -18 5 -14 16 3 9 6 20 6 25 0 20 18 7 22 -16z"/>
<path d="M872 943 c3 -54 5 -58 29 -61 22 -3 27 2 32 27 4 18 13 31 22 31 22
0 22 -148 0 -156 -9 -4 -15 -19 -15 -35 l0 -29 70 0 70 0 0 29 c0 16 -6 31
-15 35 -12 4 -15 23 -15 81 0 67 2 76 18 73 10 -2 18 -14 20 -31 3 -24 7 -28
30 -25 25 3 27 6 30 61 l3 57 -141 0 -141 0 3 -57z"/>
<path d="M1203 974 c-33 -25 -33 -26 -33 -114 l0 -89 33 -25 c48 -37 126 -37
174 0 l33 25 0 89 c0 86 -1 89 -31 114 -44 37 -130 37 -176 0z m122 -114 l0
-65 -35 0 -35 0 -3 54 c-4 73 1 83 40 79 l33 -3 0 -65z"/>
<path d="M1448 970 c-3 -19 0 -30 8 -30 17 0 24 -24 24 -90 0 -40 -4 -59 -14
-63 -7 -3 -16 -19 -18 -36 l-5 -31 74 0 73 0 0 29 c0 21 -6 32 -20 36 -16 5
-20 15 -20 51 0 24 2 44 5 44 2 0 14 -18 25 -40 25 -49 52 -53 70 -10 7 16 18
35 26 41 12 9 14 4 14 -34 0 -37 -4 -47 -20 -52 -14 -4 -20 -15 -20 -36 l0
-29 70 0 70 0 0 29 c0 16 -6 31 -15 35 -11 4 -15 22 -15 76 0 54 4 72 15 76 9
4 15 19 15 35 0 29 -1 29 -60 29 -59 0 -60 0 -80 -40 -11 -22 -24 -40 -29 -40
-4 0 -16 18 -26 40 l-18 40 -62 0 c-62 0 -63 0 -67 -30z"/>
<path d="M820 580 c0 -5 5 -10 11 -10 5 0 7 5 4 10 -3 6 -8 10 -11 10 -2 0 -4
-4 -4 -10z"/>
<path d="M1065 580 c-3 -5 1 -10 10 -10 9 0 13 5 10 10 -3 6 -8 10 -10 10 -2
0 -7 -4 -10 -10z"/>
<path d="M1430 580 c0 -5 5 -10 11 -10 5 0 7 5 4 10 -3 6 -8 10 -11 10 -2 0
-4 -4 -4 -10z"/>
</g>
</svg>
